<?xml version="1.0" encoding="UTF-8" standalone="no"?>
<svg
   width="89.70887"
   height="89.70887"
   viewBox="0 0 89.70887 89.70887"
   version="1.1"
   id="svg1"
   sodipodi:docname="gitee.svg"
   inkscape:version="1.4.2 (ebf0e940d0, 2025-05-08)"
   xmlns:inkscape="http://www.inkscape.org/namespaces/inkscape"
   xmlns:sodipodi="http://sodipodi.sourceforge.net/DTD/sodipodi-0.dtd"
   xmlns="http://www.w3.org/2000/svg"
   xmlns:svg="http://www.w3.org/2000/svg"
   xmlns:rdf="http://www.w3.org/1999/02/22-rdf-syntax-ns#"
   xmlns:cc="http://creativecommons.org/ns#"
   xmlns:dc="http://purl.org/dc/elements/1.1/">
  <defs
     id="defs1" />
  <sodipodi:namedview
     id="namedview1"
     pagecolor="#ffffff"
     bordercolor="#000000"
     borderopacity="0.25"
     inkscape:showpageshadow="2"
     inkscape:pageopacity="0.0"
     inkscape:pagecheckerboard="0"
     inkscape:deskcolor="#d1d1d1"
     inkscape:zoom="3.4300699"
     inkscape:cx="116.6157"
     inkscape:cy="68.365953"
     inkscape:window-width="1920"
     inkscape:window-height="1052"
     inkscape:window-x="0"
     inkscape:window-y="338"
     inkscape:window-maximized="1"
     inkscape:current-layer="Group" />
  <!-- Generator: Sketch 61.2 (89653) - https://sketch.com -->
  <title
     id="title1">logo-black</title>
  <desc
     id="desc1">Created with Sketch.</desc>
  <g
     id="LOGO"
     stroke="none"
     stroke-width="1"
     fill="none"
     fill-rule="evenodd">
    <g
       id="logo-black">
      <g
         id="Group">
        <path
           id="Combined-Shape"
           style="fill:#1a1a1a"
           d="M 89.70887,44.854435 A 44.854435,44.854435 0 0 1 44.854435,89.70887 44.854435,44.854435 0 0 1 0,44.854435 44.854435,44.854435 0 0 1 44.854435,0 44.854435,44.854435 0 0 1 89.70887,44.854435 Z" />
        <path
           d="M 67.558546,39.871429 H 42.085797 c -1.223097,5.8e-4 -2.214702,0.991926 -2.215602,2.215022 l -0.0015,5.537332 c -9.19e-4,1.223322 0.99052,2.215281 2.213843,2.215602 1.99e-4,0 3.99e-4,0 5.98e-4,-5.99e-4 l 15.507762,-1.29e-4 c 1.223323,-2.9e-5 2.21503,0.991662 2.21504,2.214985 0,6e-6 0,1.2e-5 -1.8e-5,1.8e-5 v 0.553694 0 0.553761 c 0,3.669968 -2.975097,6.645065 -6.645065,6.645065 H 32.116551 c -1.223148,-6.1e-5 -2.214714,-0.9916 -2.214809,-2.214747 l -5.79e-4,-21.042314 c -2.85e-4,-3.669968 2.97473,-6.645147 6.644698,-6.645248 6.1e-5,0 1.22e-4,0 1.83e-4,1.83e-4 h 31.00632 c 1.222786,-0.0014 2.214263,-0.992236 2.216395,-2.215022 l 0.0034,-5.537332 c 0.0021,-1.223322 -0.988952,-2.215636 -2.212274,-2.216395 -4.58e-4,0 -9.16e-4,0 -0.0014,0.0014 H 36.547968 c -9.174921,0 -16.612663,7.437743 -16.612663,16.612663 v 31.009205 c 0,1.223323 0.991699,2.215022 2.215022,2.215022 h 32.672171 c 8.257248,0 14.95107,-6.693822 14.95107,-14.95107 V 42.086451 c 0,-1.223323 -0.991699,-2.215022 -2.215022,-2.215022 z"
           id="G"
           fill="#ffffff" />
      </g>
    </g>
  </g>
  <metadata
     id="metadata1">
    <rdf:RDF>
      <cc:Work
         rdf:about="">
        <dc:title>logo-black</dc:title>
      </cc:Work>
    </rdf:RDF>
  </metadata>
</svg>
